<svg xmlns="http://www.w3.org/2000/svg" xmlns:xlink="http://www.w3.org/1999/xlink" xmlns:lucid="lucid" width="1760" height="1360"><g transform="translate(0 0)" lucid:page-tab-id="0_0"><path d="M0 0h1760v1360H0z" fill="#fff"/><path d="M140 180h460v182.8H140z" stroke="#000" stroke-width="2" fill="#fff"/><use xlink:href="#a" transform="matrix(1,0,0,1,145,185) translate(0 14.500000000000009)"/><use xlink:href="#b" transform="matrix(1,0,0,1,145,185) translate(0 36.10000000000001)"/><use xlink:href="#c" transform="matrix(1,0,0,1,145,185) translate(0 57.70000000000001)"/><use xlink:href="#d" transform="matrix(1,0,0,1,145,185) translate(52.50000000000001 57.70000000000001)"/><use xlink:href="#e" transform="matrix(1,0,0,1,145,185) translate(63.45 57.70000000000001)"/><use xlink:href="#f" transform="matrix(1,0,0,1,145,185) translate(126.80000000000001 57.70000000000001)"/><use xlink:href="#g" transform="matrix(1,0,0,1,145,185) translate(0 79.30000000000003)"/><use xlink:href="#h" transform="matrix(1,0,0,1,145,185) translate(0 100.90000000000002)"/><use xlink:href="#i" transform="matrix(1,0,0,1,145,185) translate(89.90000000000002 100.90000000000002)"/><use xlink:href="#j" transform="matrix(1,0,0,1,145,185) translate(164.75000000000003 100.90000000000002)"/><use xlink:href="#k" transform="matrix(1,0,0,1,145,185) translate(189.65000000000003 100.90000000000002)"/><use xlink:href="#l" transform="matrix(1,0,0,1,145,185) translate(331.05 100.90000000000002)"/><use xlink:href="#m" transform="matrix(1,0,0,1,145,185) translate(0 122.50000000000001)"/><use xlink:href="#i" transform="matrix(1,0,0,1,145,185) translate(128.35000000000002 122.50000000000001)"/><use xlink:href="#n" transform="matrix(1,0,0,1,145,185) translate(203.20000000000005 122.50000000000001)"/><use xlink:href="#o" transform="matrix(1,0,0,1,145,185) translate(227.90000000000003 122.50000000000001)"/><use xlink:href="#p" transform="matrix(1,0,0,1,145,185) translate(0 144.1)"/><use xlink:href="#q" transform="matrix(1,0,0,1,145,185) translate(71.25 144.1)"/><use xlink:href="#r" transform="matrix(1,0,0,1,145,185) translate(0 165.70000000000002)"/><path d="M183.25 363.8v198.6h97.5" stroke="#000" stroke-width="2" fill="none"/><path d="M184.25 363.8h-2v-1h2zM295.76 562.4l-14.26 4.64v-9.28z"/><path d="M299 562.4l-18.5 6v-12zm-16.5 3.26l10.03-3.26-10.03-3.26z"/><path d="M183.25 363.8v420.5h97.5" stroke="#000" stroke-width="2" fill="none"/><path d="M184.25 363.8h-2v-1h2zM295.76 784.3l-14.26 4.64v-9.28z"/><path d="M299 784.3l-18.5 6v-12zm-16.5 3.26l10.03-3.26-10.03-3.26z"/><path d="M183.25 363.8V1045h97.5" stroke="#000" stroke-width="2" fill="none"/><path d="M184.25 363.8h-2v-1h2zM295.76 1045l-14.26 4.64v-9.28z"/><path d="M299 1045l-18.5 6v-12zm-16.5 3.26l10.03-3.26-10.03-3.26z"/><path d="M183.25 363.8V915h97.5" stroke="#000" stroke-width="2" fill="none"/><path d="M184.25 363.8h-2v-1h2zM295.76 915l-14.26 4.64v-9.28z"/><path d="M299 915l-18.5 6v-12zm-16.5 3.26l10.03-3.26-10.03-3.26z"/><path d="M183.25 363.8v816.9h97.5" stroke="#000" stroke-width="2" fill="none"/><path d="M184.25 363.8h-2v-1h2zM295.76 1180.7l-14.26 4.64v-9.28z"/><path d="M299 1180.7l-18.5 6v-12zm-16.5 3.26l10.03-3.26-10.03-3.26z"/><path d="M1240 1256.22c0 8.3-71.63 15.03-160 15.03s-160-6.73-160-15.03v-120.2c0-8.3 71.63-15.02 160-15.02s160 6.73 160 15.03z" stroke="#000" stroke-width="2" fill="#fff"/><path d="M1240 1136.03c0 8.3-71.63 15.02-160 15.02s-160-6.73-160-15.02" stroke="#000" stroke-width="2" fill="none"/><use xlink:href="#s" transform="matrix(1,0,0,1,925,1156.05) translate(114.14999999999999 26.69999999999999)"/><use xlink:href="#t" transform="matrix(1,0,0,1,925,1156.05) translate(101.475 48.29999999999999)"/><use xlink:href="#u" transform="matrix(1,0,0,1,925,1156.05) translate(146.325 48.29999999999999)"/><use xlink:href="#v" transform="matrix(1,0,0,1,925,1156.05) translate(55.599999999999994 69.89999999999999)"/><use xlink:href="#w" transform="matrix(1,0,0,1,925,1156.05) translate(126.7 69.89999999999999)"/><use xlink:href="#x" transform="matrix(1,0,0,1,925,1156.05) translate(187.5 69.89999999999999)"/><use xlink:href="#v" transform="matrix(1,0,0,1,925,1156.05) translate(67 91.5)"/><use xlink:href="#y" transform="matrix(1,0,0,1,925,1156.05) translate(138.10000000000002 91.5)"/><use xlink:href="#z" transform="matrix(1,0,0,1,925,1156.05) translate(191.85000000000002 91.5)"/><path d="M1420 724.8h220V794h-220z" stroke="#000" stroke-width="2" fill="#fff"/><use xlink:href="#A" transform="matrix(1,0,0,1,1425,729.8) translate(90.025 22.799999999999997)"/><use xlink:href="#B" transform="matrix(1,0,0,1,1425,729.8) translate(50.75 44.4)"/><use xlink:href="#z" transform="matrix(1,0,0,1,1425,729.8) translate(108.1 44.4)"/><path d="M1400 947.8h260V1049h-260z" stroke="#000" stroke-width="2" fill="#fff"/><use xlink:href="#C" transform="matrix(1,0,0,1,1405,952.8) translate(0 17.19999999999999)"/><use xlink:href="#g" transform="matrix(1,0,0,1,1405,952.8) translate(0 38.79999999999999)"/><use xlink:href="#D" transform="matrix(1,0,0,1,1405,952.8) translate(0 60.39999999999999)"/><use xlink:href="#E" transform="matrix(1,0,0,1,1405,952.8) translate(124.35 60.39999999999999)"/><use xlink:href="#y" transform="matrix(1,0,0,1,1405,952.8) translate(0 82)"/><use xlink:href="#F" transform="matrix(1,0,0,1,1405,952.8) translate(53.75 82)"/><use xlink:href="#G" transform="matrix(1,0,0,1,1405,952.8) translate(109.9 82)"/><use xlink:href="#H" transform="matrix(1,0,0,1,1405,952.8) translate(124.45 82)"/><path d="M1530 946.8V813.24" stroke="#000" stroke-width="2" fill="none"/><path d="M1531 947.8h-2v-1h2zM1534.64 812.5h-9.28l4.64-14.26z"/><path d="M1536 813.5h-12l6-18.5zm-9.26-2h6.52l-3.26-10.03z"/><path d="M1530 1050v146.13h-270.76" stroke="#000" stroke-width="2" fill="none"/><path d="M1531 1050h-2v-1h2zM1258.5 1200.76l-14.26-4.63 14.26-4.64z"/><path d="M1259.5 1202.14l-18.5-6.02 18.5-6zm-12.03-6.02l10.03 3.26v-6.5z"/><path d="M970 724.32h220v69.2H970z" stroke="#000" stroke-width="2" fill="#fff"/><use xlink:href="#A" transform="matrix(1,0,0,1,975,729.3249999999999) translate(90.025 22.799999999999997)"/><use xlink:href="#I" transform="matrix(1,0,0,1,975,729.3249999999999) translate(35.79999999999998 44.4)"/><use xlink:href="#J" transform="matrix(1,0,0,1,975,729.3249999999999) translate(107.3 44.4)"/><path d="M300 460.2h364v204.4H300z" stroke="#000" stroke-width="2" fill="#fff"/><use xlink:href="#K" transform="matrix(1,0,0,1,305,465.2) translate(0 14.700000000000012)"/><use xlink:href="#g" transform="matrix(1,0,0,1,305,465.2) translate(0 36.30000000000001)"/><use xlink:href="#h" transform="matrix(1,0,0,1,305,465.2) translate(0 57.90000000000001)"/><use xlink:href="#L" transform="matrix(1,0,0,1,305,465.2) translate(89.90000000000002 57.90000000000001)"/><use xlink:href="#M" transform="matrix(1,0,0,1,305,465.2) translate(152.65000000000003 57.90000000000001)"/><use xlink:href="#N" transform="matrix(1,0,0,1,305,465.2) translate(175.45000000000005 57.90000000000001)"/><use xlink:href="#O" transform="matrix(1,0,0,1,305,465.2) translate(0 79.50000000000003)"/><use xlink:href="#P" transform="matrix(1,0,0,1,305,465.2) translate(102.85000000000002 79.50000000000003)"/><use xlink:href="#u" transform="matrix(1,0,0,1,305,465.2) translate(195.95000000000002 79.50000000000003)"/><use xlink:href="#Q" transform="matrix(1,0,0,1,305,465.2) translate(0 101.10000000000002)"/><use xlink:href="#q" transform="matrix(1,0,0,1,305,465.2) translate(112.95 101.10000000000002)"/><use xlink:href="#g" transform="matrix(1,0,0,1,305,465.2) translate(0 122.70000000000002)"/><use xlink:href="#R" transform="matrix(1,0,0,1,305,465.2) translate(0 144.3)"/><use xlink:href="#S" transform="matrix(1,0,0,1,305,465.2) translate(15 144.3)"/><use xlink:href="#T" transform="matrix(1,0,0,1,305,465.2) translate(84.75 144.3)"/><use xlink:href="#U" transform="matrix(1,0,0,1,305,465.2) translate(209.2 144.3)"/><use xlink:href="#V" transform="matrix(1,0,0,1,305,465.2) translate(0 165.9)"/><use xlink:href="#W" transform="matrix(1,0,0,1,305,465.2) translate(105.00000000000001 165.9)"/><use xlink:href="#X" transform="matrix(1,0,0,1,305,465.2) translate(173.60000000000002 165.9)"/><use xlink:href="#Y" transform="matrix(1,0,0,1,305,465.2) translate(198.50000000000003 165.9)"/><use xlink:href="#Z" transform="matrix(1,0,0,1,305,465.2) translate(264.35 165.9)"/><use xlink:href="#aa" transform="matrix(1,0,0,1,305,465.2) translate(309.8 165.9)"/><use xlink:href="#ab" transform="matrix(1,0,0,1,305,465.2) translate(0 187.5)"/><use xlink:href="#ac" transform="matrix(1,0,0,1,305,465.2) translate(136.9 187.5)"/><path d="M300 751.3h364v66H300z" stroke="#000" stroke-width="2" fill="#fff"/><use xlink:href="#ad" transform="matrix(1,0,0,1,305.00000000000034,756.3) translate(0 14.4)"/><use xlink:href="#b" transform="matrix(1,0,0,1,305.00000000000034,756.3) translate(0 36)"/><use xlink:href="#ae" transform="matrix(1,0,0,1,305.00000000000034,756.3) translate(0 57.6)"/><use xlink:href="#af" transform="matrix(1,0,0,1,305.00000000000034,756.3) translate(0 79.20000000000002)"/><path d="M300 1160.7h364v40H300z" stroke="#000" stroke-width="2" fill="#fff"/><use xlink:href="#ag" transform="matrix(1,0,0,1,305,1165.6999999999998) translate(0 18.6)"/><use xlink:href="#ah" transform="matrix(1,0,0,1,305,1165.6999999999998) translate(40.15 18.6)"/><use xlink:href="#ai" transform="matrix(1,0,0,1,305,1165.6999999999998) translate(107.6 18.6)"/><path d="M300 882h364v66H300z" stroke="#000" stroke-width="2" fill="#fff"/><use xlink:href="#ad" transform="matrix(1,0,0,1,305,887) translate(0 14.4)"/><use xlink:href="#b" transform="matrix(1,0,0,1,305,887) translate(0 36)"/><use xlink:href="#ae" transform="matrix(1,0,0,1,305,887) translate(0 57.6)"/><use xlink:href="#af" transform="matrix(1,0,0,1,305,887) translate(0 79.20000000000002)"/><path d="M300 1012h364v66H300z" stroke="#000" stroke-width="2" fill="#fff"/><use xlink:href="#ad" transform="matrix(1,0,0,1,305.0000000000004,1017) translate(0 14.4)"/><use xlink:href="#b" transform="matrix(1,0,0,1,305.0000000000004,1017) translate(0 36)"/><use xlink:href="#ae" transform="matrix(1,0,0,1,305.0000000000004,1017) translate(0 57.6)"/><use xlink:href="#af" transform="matrix(1,0,0,1,305.0000000000004,1017) translate(0 79.20000000000002)"/><path d="M1140 498.23c0 8.3-71.63 15.02-160 15.02s-160-6.73-160-15.02v-120.2c0-8.3 71.63-15.03 160-15.03s160 6.73 160 15.02z" stroke="#000" stroke-width="2" fill="#fff"/><path d="M1140 378.02c0 8.3-71.63 15.03-160 15.03s-160-6.73-160-15.03" stroke="#000" stroke-width="2" fill="none"/><use xlink:href="#aj" transform="matrix(1,0,0,1,825,398.05) translate(133.525 37.5)"/><use xlink:href="#ak" transform="matrix(1,0,0,1,825,398.05) translate(5.775000000000006 59.1)"/><use xlink:href="#al" transform="matrix(1,0,0,1,825,398.05) translate(70.92500000000001 59.1)"/><use xlink:href="#am" transform="matrix(1,0,0,1,825,398.05) translate(186.875 59.1)"/><use xlink:href="#an" transform="matrix(1,0,0,1,825,398.05) translate(201.875 59.1)"/><use xlink:href="#ao" transform="matrix(1,0,0,1,825,398.05) translate(246.875 59.1)"/><use xlink:href="#ap" transform="matrix(1,0,0,1,825,398.05) translate(18.849999999999994 80.70000000000002)"/><use xlink:href="#aq" transform="matrix(1,0,0,1,825,398.05) translate(115.4 80.70000000000002)"/><use xlink:href="#ar" transform="matrix(1,0,0,1,825,398.05) translate(219.3 80.70000000000002)"/><path d="M800 758.67h84.5v.25h66.26" stroke="#000" stroke-width="2" fill="none"/><path d="M965.76 758.92l-14.26 4.64v-9.27z"/><path d="M969 758.92l-18.5 6.02V752.9zm-16.5 3.26l10.03-3.25-10.03-3.26z"/><path d="M800 920v280h100.76" stroke="#000" stroke-width="2" fill="none"/><path d="M915.76 1200l-14.26 4.64v-9.28z"/><path d="M919 1200l-18.5 6v-12zm-16.5 3.26l10.03-3.26-10.03-3.26z"/><path d="M482 459.2v-21.07h318.76" stroke="#000" stroke-width="2" fill="none"/><path d="M483 460.2h-2v-1h2zM815.76 438.13l-14.26 4.63v-9.27z"/><path d="M819 438.13l-18.5 6v-12.02zm-16.5 3.25l10.03-3.25-10.03-3.26z"/><path d="M665 784.3h67.5v-.3H800" stroke="#000" stroke-width="2" fill="none"/><path d="M665 785.3h-1v-2h1z"/><path d="M665 915h135" stroke="#000" stroke-width="2" fill="none"/><path d="M665 916h-1v-2h1z"/><path d="M40 10.4h400v118H40z" stroke="#000" stroke-width="2" fill="#fff"/><g><use xlink:href="#as" transform="matrix(1,0,0,1,45,15.399999999999999) translate(156.14999999999998 25.69999999999999)"/><use xlink:href="#at" transform="matrix(1,0,0,1,45,15.399999999999999) translate(151.075 47.29999999999999)"/><use xlink:href="#au" transform="matrix(1,0,0,1,45,15.399999999999999) translate(64.475 68.89999999999999)"/><use xlink:href="#av" transform="matrix(1,0,0,1,45,15.399999999999999) translate(145.575 68.89999999999999)"/><use xlink:href="#aw" transform="matrix(1,0,0,1,45,15.399999999999999) translate(206.375 68.89999999999999)"/><use xlink:href="#ax" transform="matrix(1,0,0,1,45,15.399999999999999) translate(278.275 68.89999999999999)"/><use xlink:href="#ay" transform="matrix(1,0,0,1,45,15.399999999999999) translate(301.57500000000005 68.89999999999999)"/><use xlink:href="#au" transform="matrix(1,0,0,1,45,15.399999999999999) translate(9.974999999999966 90.5)"/><use xlink:href="#al" transform="matrix(1,0,0,1,45,15.399999999999999) translate(91.07499999999997 90.5)"/><use xlink:href="#am" transform="matrix(1,0,0,1,45,15.399999999999999) translate(207.02499999999998 90.5)"/><use xlink:href="#az" transform="matrix(1,0,0,1,45,15.399999999999999) translate(222.02499999999998 90.5)"/><use xlink:href="#aA" transform="matrix(1,0,0,1,45,15.399999999999999) translate(322.675 90.5)"/></g><path d="M1160 820.16h260v101h-260z" stroke="#000" stroke-width="2" fill="#fff"/><g><use xlink:href="#C" transform="matrix(1,0,0,1,1165,825.1624999999999) translate(0 17.19999999999999)"/><use xlink:href="#g" transform="matrix(1,0,0,1,1165,825.1624999999999) translate(0 38.79999999999999)"/><use xlink:href="#D" transform="matrix(1,0,0,1,1165,825.1624999999999) translate(0 60.39999999999999)"/><use xlink:href="#E" transform="matrix(1,0,0,1,1165,825.1624999999999) translate(124.35 60.39999999999999)"/><use xlink:href="#w" transform="matrix(1,0,0,1,1165,825.1624999999999) translate(0 82)"/><use xlink:href="#aB" transform="matrix(1,0,0,1,1165,825.1624999999999) translate(60.800000000000004 82)"/><use xlink:href="#G" transform="matrix(1,0,0,1,1165,825.1624999999999) translate(132.70000000000002 82)"/><use xlink:href="#H" transform="matrix(1,0,0,1,1165,825.1624999999999) translate(147.25000000000003 82)"/></g><path d="M1290 819.16v-60.24h-80.76" stroke="#000" stroke-width="2" fill="none"/><path d="M1291 820.16h-2v-1h2zM1208.5 763.56l-14.26-4.63 14.26-4.64z"/><path d="M1209.5 764.94l-18.5-6.02 18.5-6zm-12.03-6.02l10.03 3.26v-6.5z"/><path d="M1290 922.16v273.97h-30.76" stroke="#000" stroke-width="2" fill="none"/><path d="M1291 922.16h-2v-1h2zM1258.5 1200.76l-14.26-4.63 14.26-4.64z"/><path d="M1259.5 1202.14l-18.5-6.02 18.5-6zm-12.03-6.02l10.03 3.26v-6.5z"/><path d="M93.34 129.4V1300H1080v-9.5" stroke="#000" stroke-width="2" fill="none"/><path d="M94.34 129.4h-2v-1h2zM1084.64 1289.75h-9.28l4.64-14.26z"/><path d="M1086 1290.75h-12l6-18.5zm-9.26-2h6.52l-3.26-10.03z"/><path d="M240 129.4v31.36" stroke="#000" stroke-width="2" fill="none"/><path d="M241 129.4h-2v-1h2zM240 175.76l-4.64-14.26h9.28z"/><path d="M240 179l-6-18.5h12zm-3.26-16.5l3.26 10.03 3.26-10.03z"/><path d="M665 562.4h135V920" stroke="#000" stroke-width="2" fill="none"/><path d="M665 563.4h-1v-2h1z"/><path d="M664 729.9c0 2.04-17.9 3.7-40 3.7s-40-1.66-40-3.7v-29.6c0-2.04 17.9-3.7 40-3.7s40 1.66 40 3.7z" stroke="#000" stroke-width="2" fill="#fff"/><path d="M664 700.3c0 2.04-17.9 3.7-40 3.7s-40-1.66-40-3.7" stroke="#000" stroke-width="2" fill="none"/><g><use xlink:href="#aC" transform="matrix(1,0,0,1,589,708.9999999999999) translate(13.524999999999999 14.4)"/></g><path d="M482 750.3v-35.2h82.76" stroke="#000" stroke-width="2" fill="none"/><path d="M483 751.3h-2v-1h2zM579.76 715.1l-14.26 4.64v-9.28z"/><path d="M583 715.1l-18.5 6v-12zm-16.5 3.26l10.03-3.26-10.03-3.26z"/><path d="M664 864.8c0 2.04-17.9 3.7-40 3.7s-40-1.66-40-3.7v-29.6c0-2.04 17.9-3.7 40-3.7s40 1.66 40 3.7z" stroke="#000" stroke-width="2" fill="#fff"/><path d="M664 835.2c0 2.04-17.9 3.7-40 3.7s-40-1.66-40-3.7" stroke="#000" stroke-width="2" fill="none"/><g><use xlink:href="#aC" transform="matrix(1,0,0,1,588.9999999999995,843.9) translate(13.524999999999999 14.4)"/></g><path d="M482 881v-31h82.76" stroke="#000" stroke-width="2" fill="none"/><path d="M483 882h-2v-1h2zM579.76 850l-14.26 4.64v-9.28z"/><path d="M583 850l-18.5 6v-12zm-16.5 3.26l10.03-3.26-10.03-3.26z"/><path d="M664 994.8c0 2.04-17.9 3.7-40 3.7s-40-1.66-40-3.7v-29.6c0-2.04 17.9-3.7 40-3.7s40 1.66 40 3.7z" stroke="#000" stroke-width="2" fill="#fff"/><path d="M664 965.2c0 2.04-17.9 3.7-40 3.7s-40-1.66-40-3.7" stroke="#000" stroke-width="2" fill="none"/><g><use xlink:href="#aC" transform="matrix(1,0,0,1,589,973.9) translate(13.524999999999999 14.4)"/></g><path d="M482 1011v-31h82.76" stroke="#000" stroke-width="2" fill="none"/><path d="M483 1012h-2v-1h2zM579.76 980l-14.26 4.64v-9.28z"/><path d="M583 980l-18.5 6v-12zm-16.5 3.26l10.03-3.26-10.03-3.26z"/><path d="M664 1134.15c0 2.04-17.9 3.7-40 3.7s-40-1.66-40-3.7v-29.6c0-2.04 17.9-3.7 40-3.7s40 1.66 40 3.7z" stroke="#000" stroke-width="2" fill="#fff"/><path d="M664 1104.55c0 2.04-17.9 3.7-40 3.7s-40-1.66-40-3.7" stroke="#000" stroke-width="2" fill="none"/><g><use xlink:href="#aC" transform="matrix(1,0,0,1,589,1113.25) translate(13.524999999999999 14.4)"/></g><path d="M482 1159.7v-40.35h82.76" stroke="#000" stroke-width="2" fill="none"/><path d="M483 1160.7h-2v-1h2zM579.76 1119.35L565.5 1124v-9.3z"/><path d="M583 1119.35l-18.5 6v-12zm-16.5 3.26l10.03-3.25-10.03-3.26z"/><path d="M665 1045h67.5v-1H800" stroke="#000" stroke-width="2" fill="none"/><path d="M665 1046h-1v-2h1z"/><path d="M665 1180.7h67.5v1.97H800" stroke="#000" stroke-width="2" fill="none"/><path d="M665 1181.7h-1v-2h1z"/><path d="M80 164c0 8.84-8.95 16-20 16s-20-7.16-20-16 8.95-16 20-16 20 7.16 20 16z" stroke="#000" stroke-width="2" fill="#fff"/><g><use xlink:href="#aD" transform="matrix(1,0,0,1,45,153) translate(7.592592592592592 21.333333333333336)"/></g><path d="M300 154.2c0 8.84-8.95 16-20 16s-20-7.16-20-16 8.95-16 20-16 20 7.16 20 16z" stroke="#000" stroke-width="2" fill="#fff"/><g><use xlink:href="#aE" transform="matrix(1,0,0,1,265,143.2) translate(7.592592592592592 21.333333333333336)"/></g><path d="M240 529c0 8.84-8.95 16-20 16s-20-7.16-20-16 8.95-16 20-16 20 7.16 20 16z" stroke="#000" stroke-width="2" fill="#fff"/><g><use xlink:href="#aF" transform="matrix(1,0,0,1,205,518) translate(7.592592592592592 21.333333333333336)"/></g><path d="M760 416c0 8.84-8.95 16-20 16s-20-7.16-20-16 8.95-16 20-16 20 7.16 20 16z" stroke="#000" stroke-width="2" fill="#fff"/><g><use xlink:href="#aG" transform="matrix(1,0,0,1,725,405) translate(7.592592592592592 21.333333333333336)"/></g><path d="M860 718c0 8.84-8.95 16-20 16s-20-7.16-20-16 8.95-16 20-16 20 7.16 20 16z" stroke="#000" stroke-width="2" fill="#fff"/><g><use xlink:href="#aH" transform="matrix(1,0,0,1,825,707) translate(7.592592592592592 21.333333333333336)"/></g><defs><path d="M24 0v-248h195v40H76v63h132v40H76v65h150V0H24" id="aI"/><path d="M135-194c87-1 58 113 63 194h-50c-7-57 23-157-34-157-59 0-34 97-39 157H25l-1-190h47c2 12-1 28 3 38 12-26 28-41 61-42" id="aJ"/><path d="M88-194c31-1 46 15 58 34l-1-101h50l1 261h-48c-2-10 0-23-3-31C134-8 116 4 84 4 32 4 16-41 15-95c0-56 19-97 73-99zm17 164c33 0 40-30 41-66 1-37-9-64-41-64s-38 30-39 65c0 43 13 65 39 65" id="aK"/><path d="M135-194c53 0 70 44 70 98 0 56-19 98-73 100-31 1-45-17-59-34 3 33 2 69 2 105H25l-1-265h48c2 10 0 23 3 31 11-24 29-35 60-35zM114-30c33 0 39-31 40-66 0-38-9-64-40-64-56 0-55 130 0 130" id="aL"/><path d="M110-194c64 0 96 36 96 99 0 64-35 99-97 99-61 0-95-36-95-99 0-62 34-99 96-99zm-1 164c35 0 45-28 45-65 0-40-10-65-43-65-34 0-45 26-45 65 0 36 10 65 43 65" id="aM"/><path d="M25-224v-37h50v37H25zM25 0v-190h50V0H25" id="aN"/><path d="M115-3C79 11 28 4 28-45v-112H4v-33h27l15-45h31v45h36v33H77v99c-1 23 16 31 38 25v30" id="aO"/><g id="a"><use transform="matrix(0.05,0,0,0.05,0,0)" xlink:href="#aI"/><use transform="matrix(0.05,0,0,0.05,12,0)" xlink:href="#aJ"/><use transform="matrix(0.05,0,0,0.05,22.950000000000003,0)" xlink:href="#aK"/><use transform="matrix(0.05,0,0,0.05,33.900000000000006,0)" xlink:href="#aL"/><use transform="matrix(0.05,0,0,0.05,44.85000000000001,0)" xlink:href="#aM"/><use transform="matrix(0.05,0,0,0.05,55.80000000000001,0)" xlink:href="#aN"/><use transform="matrix(0.05,0,0,0.05,60.80000000000001,0)" xlink:href="#aJ"/><use transform="matrix(0.05,0,0,0.05,71.75000000000001,0)" xlink:href="#aO"/></g><path d="M175 0L67-191c6 58 2 128 3 191H24v-248h59L193-55c-6-58-2-129-3-193h46V0h-61" id="aP"/><path d="M199 0l-22-63H83L61 0H9l90-248h61L250 0h-51zm-33-102l-36-108c-10 38-24 72-36 108h72" id="aQ"/><path d="M136-208V0H84v-208H4v-40h212v40h-80" id="aR"/><path d="M169-182c-1-43-94-46-97-3 18 66 151 10 154 114 3 95-165 93-204 36-6-8-10-19-12-30l50-8c3 46 112 56 116 5-17-69-150-10-154-114-4-87 153-88 188-35 5 8 8 18 10 28" id="aS"/><g id="c"><use transform="matrix(0.05,0,0,0.05,0,0)" xlink:href="#aP"/><use transform="matrix(0.05,0,0,0.05,12.950000000000001,0)" xlink:href="#aQ"/><use transform="matrix(0.05,0,0,0.05,24.550000000000004,0)" xlink:href="#aR"/><use transform="matrix(0.05,0,0,0.05,35.50000000000001,0)" xlink:href="#aS"/></g><path d="M14-72v-43h91v43H14" id="aT"/><use transform="matrix(0.05,0,0,0.05,0,0)" xlink:href="#aT" id="d"/><path d="M96-169c-40 0-48 33-48 73s9 75 48 75c24 0 41-14 43-38l32 2c-6 37-31 61-74 61-59 0-76-41-82-99-10-93 101-131 147-64 4 7 5 14 7 22l-32 3c-4-21-16-35-41-35" id="aU"/><path d="M100-194c63 0 86 42 84 106H49c0 40 14 67 53 68 26 1 43-12 49-29l28 8c-11 28-37 45-77 45C44 4 14-33 15-96c1-61 26-98 85-98zm52 81c6-60-76-77-97-28-3 7-6 17-6 28h103" id="aV"/><path d="M115-194c55 1 70 41 70 98S169 2 115 4C84 4 66-9 55-30l1 105H24l-1-265h31l2 30c10-21 28-34 59-34zm-8 174c40 0 45-34 45-75s-6-73-45-74c-42 0-51 32-51 76 0 43 10 73 51 73" id="aW"/><path d="M176-55C176 11 93 0 25 0v-190c61 3 142-15 144 47 1 29-21 35-39 44 27 3 46 16 46 44zm-34 0c0-41-47-30-85-32v64c38-1 85 8 85-32zm-6-83c0-36-44-26-79-28v56c34-2 79 8 79-28" id="aX"/><g id="e"><use transform="matrix(0.05,0,0,0.05,0,0)" xlink:href="#aU"/><use transform="matrix(0.05,0,0,0.05,9,0)" xlink:href="#aV"/><use transform="matrix(0.05,0,0,0.05,19,0)" xlink:href="#aW"/><use transform="matrix(0.05,0,0,0.05,29,0)" xlink:href="#aX"/><use transform="matrix(0.05,0,0,0.05,38.35,0)" xlink:href="#aV"/><use transform="matrix(0.05,0,0,0.05,48.35,0)" xlink:href="#aW"/></g><path d="M100-194c62-1 85 37 85 99 1 63-27 99-86 99S16-35 15-95c0-66 28-99 85-99zM99-20c44 1 53-31 53-75 0-43-8-75-51-75s-53 32-53 75 10 74 51 75" id="aY"/><path d="M131-81C94-61 21-56 21-118v-72h32c4 39-16 99 29 99 19 0 33-5 49-8v-91h31V0h-31v-81" id="aZ"/><path d="M147-167H93C83-118 77-63 59-23h88v-144zM24-23c26-44 31-102 41-167h113v167h26v95h-29V0H32v72H4v-95h20" id="ba"/><path d="M165-267c8 67-110 75-125 20-2-7-4-13-4-20h29c1 23 13 35 36 35s34-13 36-35h28zM56-190L54-37l88-153h34V0h-30l2-153L59 0H25v-190h31" id="bb"/><path d="M33 0v-38h34V0H33" id="bc"/><g id="f"><use transform="matrix(0.05,0,0,0.05,0,0)" xlink:href="#aY"/><use transform="matrix(0.05,0,0,0.05,9.6,0)" xlink:href="#aZ"/><use transform="matrix(0.05,0,0,0.05,18.95,0)" xlink:href="#aV"/><use transform="matrix(0.05,0,0,0.05,28.950000000000003,0)" xlink:href="#aW"/><use transform="matrix(0.05,0,0,0.05,38.95,0)" xlink:href="#aV"/><use transform="matrix(0.05,0,0,0.05,48.550000000000004,0)" xlink:href="#ba"/><use transform="matrix(0.05,0,0,0.05,59.050000000000004,0)" xlink:href="#aV"/><use transform="matrix(0.05,0,0,0.05,69.05000000000001,0)" xlink:href="#bb"/><use transform="matrix(0.05,0,0,0.05,79.10000000000001,0)" xlink:href="#bc"/></g><path d="M16-82v-28h88v28H16" id="bd"/><path d="M197 0v-219H63V0H30v-248h201V0h-34" id="be"/><path d="M153 0v-167H87C74-108 81-27 38 0 29 5 12 6 2 1v-22c51 4 39-64 49-112 5-25 4-25 8-57h126V0h-32" id="bf"/><path d="M179-190L93 31C79 59 56 82 12 73V49c39 6 53-20 64-50L1-190h34L92-34l54-156h33" id="bg"/><path d="M141-36C126-15 110 5 73 4 37 3 15-17 15-53c-1-64 63-63 125-63 3-35-9-54-41-54-24 1-41 7-42 31l-33-3c5-37 33-52 76-52 45 0 72 20 72 64v82c-1 20 7 32 28 27v20c-31 9-61-2-59-35zM48-53c0 20 12 33 32 33 41-3 63-29 60-74-43 2-92-5-92 41" id="bh"/><path d="M6-190h153v23H98V0H67v-167H6v-23" id="bi"/><g id="h"><use transform="matrix(0.05,0,0,0.05,0,0)" xlink:href="#bd"/><use transform="matrix(0.05,0,0,0.05,5.95,0)" xlink:href="#be"/><use transform="matrix(0.05,0,0,0.05,18.85,0)" xlink:href="#aY"/><use transform="matrix(0.05,0,0,0.05,28.450000000000003,0)" xlink:href="#bf"/><use transform="matrix(0.05,0,0,0.05,38.95,0)" xlink:href="#bg"/><use transform="matrix(0.05,0,0,0.05,47.95,0)" xlink:href="#aZ"/><use transform="matrix(0.05,0,0,0.05,57.300000000000004,0)" xlink:href="#bh"/><use transform="matrix(0.05,0,0,0.05,67.30000000000001,0)" xlink:href="#aV"/><use transform="matrix(0.05,0,0,0.05,76.70000000000002,0)" xlink:href="#bi"/></g><path d="M152-53C154 19 21 22 9-41l28-8c5 36 84 42 81-4-1-29-28-34-58-35v-24c28 0 55-4 55-30 0-19-14-29-34-28-20 0-35 7-38 25l-28-3c4-33 30-46 66-46 37 0 66 15 66 50 0 27-20 41-44 44 27 5 48 17 49 47" id="bj"/><path d="M170-190V0h-32v-167H57V0H25v-190h145" id="bk"/><path d="M170-56C169 10 92 0 25 0v-190h32v80c58-2 114-1 113 54zm-34 0c0-38-42-32-79-32v66c38 0 79 5 79-34zm66 56v-190h32V0h-32" id="bl"/><g id="i"><use transform="matrix(0.05,0,0,0.05,0,0)" xlink:href="#bj"/><use transform="matrix(0.05,0,0,0.05,8.25,0)" xlink:href="#bh"/><use transform="matrix(0.05,0,0,0.05,18.25,0)" xlink:href="#bk"/><use transform="matrix(0.05,0,0,0.05,27.950000000000003,0)" xlink:href="#aW"/><use transform="matrix(0.05,0,0,0.05,37.95,0)" xlink:href="#aY"/><use transform="matrix(0.05,0,0,0.05,47.95,0)" xlink:href="#aU"/><use transform="matrix(0.05,0,0,0.05,56.95,0)" xlink:href="#bl"/></g><path d="M57-190v80h85v-80h32V0h-32v-87H57V0H25v-190h32" id="bm"/><g id="j"><use transform="matrix(0.05,0,0,0.05,0,0)" xlink:href="#bm"/><use transform="matrix(0.05,0,0,0.05,9.9,0)" xlink:href="#bh"/></g><path d="M56-190L54-37l88-153h34V0h-30l2-153L59 0H25v-190h31" id="bn"/><g id="k"><use transform="matrix(0.05,0,0,0.05,0,0)" xlink:href="#bk"/><use transform="matrix(0.05,0,0,0.05,9.700000000000001,0)" xlink:href="#aW"/><use transform="matrix(0.05,0,0,0.05,19.700000000000003,0)" xlink:href="#aV"/><use transform="matrix(0.05,0,0,0.05,29.3,0)" xlink:href="#ba"/><use transform="matrix(0.05,0,0,0.05,39.800000000000004,0)" xlink:href="#aY"/><use transform="matrix(0.05,0,0,0.05,49.800000000000004,0)" xlink:href="#aU"/><use transform="matrix(0.05,0,0,0.05,58.800000000000004,0)" xlink:href="#bi"/><use transform="matrix(0.05,0,0,0.05,66.8,0)" xlink:href="#bh"/><use transform="matrix(0.05,0,0,0.05,76.8,0)" xlink:href="#aX"/><use transform="matrix(0.05,0,0,0.05,85.94999999999999,0)" xlink:href="#bf"/><use transform="matrix(0.05,0,0,0.05,96.44999999999999,0)" xlink:href="#aV"/><use transform="matrix(0.05,0,0,0.05,106.44999999999999,0)" xlink:href="#bm"/><use transform="matrix(0.05,0,0,0.05,116.34999999999998,0)" xlink:href="#bn"/><use transform="matrix(0.05,0,0,0.05,126.39999999999998,0)" xlink:href="#aV"/></g><path d="M217-194c52 0 64 44 64 98S268 2 217 4c-29 1-44-13-55-34l1 105h-30V-31C124-8 108 4 79 4 29 4 16-37 15-94c0-57 15-98 64-100 29 0 44 14 55 33l-1-100h30v101c10-23 24-34 54-34zM89-170c-37 1-41 36-41 75 0 37 3 74 40 74 39 0 45-35 45-76-1-39-6-73-44-73zM207-20c38 0 41-36 41-75 0-38-3-74-40-74-41 0-45 36-45 80 1 38 7 69 44 69" id="bo"/><path d="M138 0h-27L54-167c3 53 2 111 2 167H25v-190h49c16 56 39 106 51 166 11-61 34-110 50-166h48V0h-31l2-168" id="bp"/><path d="M57-190v167h83v-167h32v167h26v95h-29V0H25v-190h32" id="bq"/><g id="l"><use transform="matrix(0.05,0,0,0.05,0,0)" xlink:href="#bn"/><use transform="matrix(0.05,0,0,0.05,10.05,0)" xlink:href="#bm"/><use transform="matrix(0.05,0,0,0.05,19.950000000000003,0)" xlink:href="#bo"/><use transform="matrix(0.05,0,0,0.05,34.75,0)" xlink:href="#aY"/><use transform="matrix(0.05,0,0,0.05,44.75,0)" xlink:href="#aW"/><use transform="matrix(0.05,0,0,0.05,54.75,0)" xlink:href="#bp"/><use transform="matrix(0.05,0,0,0.05,67.1,0)" xlink:href="#bh"/><use transform="matrix(0.05,0,0,0.05,77.1,0)" xlink:href="#bq"/><use transform="matrix(0.05,0,0,0.05,87.39999999999999,0)" xlink:href="#bn"/><use transform="matrix(0.05,0,0,0.05,97.44999999999999,0)" xlink:href="#bn"/></g><path d="M30-248c87 1 191-15 191 75 0 78-77 80-158 76V0H30v-248zm33 125c57 0 124 11 124-50 0-59-68-47-124-48v98" id="br"/><path d="M20-138c-1-64 85-51 150-52V0h-32v-81H94L39 0H3l60-83c-28-5-43-24-43-55zm33 3c0 40 46 33 85 33v-66c-39 0-85-6-85 33" id="bs"/><g id="m"><use transform="matrix(0.05,0,0,0.05,0,0)" xlink:href="#bd"/><use transform="matrix(0.05,0,0,0.05,5.95,0)" xlink:href="#br"/><use transform="matrix(0.05,0,0,0.05,17.35,0)" xlink:href="#bh"/><use transform="matrix(0.05,0,0,0.05,27.35,0)" xlink:href="#aU"/><use transform="matrix(0.05,0,0,0.05,36.35,0)" xlink:href="#bk"/><use transform="matrix(0.05,0,0,0.05,46.050000000000004,0)" xlink:href="#aW"/><use transform="matrix(0.05,0,0,0.05,56.050000000000004,0)" xlink:href="#aV"/><use transform="matrix(0.05,0,0,0.05,65.65,0)" xlink:href="#ba"/><use transform="matrix(0.05,0,0,0.05,76.15,0)" xlink:href="#aV"/><use transform="matrix(0.05,0,0,0.05,85.55000000000001,0)" xlink:href="#bf"/><use transform="matrix(0.05,0,0,0.05,96.05000000000001,0)" xlink:href="#bs"/><use transform="matrix(0.05,0,0,0.05,105.75,0)" xlink:href="#aV"/><use transform="matrix(0.05,0,0,0.05,115.15000000000003,0)" xlink:href="#bi"/></g><g id="n"><use transform="matrix(0.05,0,0,0.05,0,0)" xlink:href="#bk"/><use transform="matrix(0.05,0,0,0.05,9.700000000000001,0)" xlink:href="#aY"/></g><path d="M121-190v23H57V0H25v-190h96" id="bt"/><g id="o"><use transform="matrix(0.05,0,0,0.05,0,0)" xlink:href="#bh"/><use transform="matrix(0.05,0,0,0.05,10,0)" xlink:href="#bt"/><use transform="matrix(0.05,0,0,0.05,16.15,0)" xlink:href="#aV"/><use transform="matrix(0.05,0,0,0.05,26.149999999999995,0)" xlink:href="#bm"/><use transform="matrix(0.05,0,0,0.05,36.05,0)" xlink:href="#bi"/><use transform="matrix(0.05,0,0,0.05,44.05,0)" xlink:href="#bh"/><use transform="matrix(0.05,0,0,0.05,54.04999999999999,0)" xlink:href="#bp"/></g><path d="M140-251c81 0 123 46 123 126C263-46 219 4 140 4 59 4 17-45 17-125s42-126 123-126zm0 227c63 0 89-41 89-101s-29-99-89-99c-61 0-89 39-89 99S79-25 140-24" id="bu"/><path d="M100-194c63 0 86 42 84 106H49c0 40 14 67 53 68 26 1 43-12 49-29l28 8c-11 28-37 45-77 45C44 4 14-33 15-96c1-61 26-98 85-98zm52 81c6-60-76-77-97-28-3 7-6 17-6 28h103zm-31-101v-33h29v33h-29zm-69 0v-33h29v33H52" id="bv"/><g id="p"><use transform="matrix(0.05,0,0,0.05,0,0)" xlink:href="#bd"/><use transform="matrix(0.05,0,0,0.05,5.95,0)" xlink:href="#bu"/><use transform="matrix(0.05,0,0,0.05,19.95,0)" xlink:href="#bi"/><use transform="matrix(0.05,0,0,0.05,27.549999999999997,0)" xlink:href="#ba"/><use transform="matrix(0.05,0,0,0.05,38.05,0)" xlink:href="#bh"/><use transform="matrix(0.05,0,0,0.05,48.05,0)" xlink:href="#bv"/><use transform="matrix(0.05,0,0,0.05,58.04999999999999,0)" xlink:href="#bi"/></g><g id="q"><use transform="matrix(0.05,0,0,0.05,0,0)" xlink:href="#aY"/><use transform="matrix(0.05,0,0,0.05,9.6,0)" xlink:href="#bi"/><use transform="matrix(0.05,0,0,0.05,17.8,0)" xlink:href="#aX"/><use transform="matrix(0.05,0,0,0.05,27.150000000000002,0)" xlink:href="#aV"/><use transform="matrix(0.05,0,0,0.05,36.55,0)" xlink:href="#bi"/></g><path d="M220-157c-53 9-28 100-34 157h-49v-107c1-27-5-49-29-50C55-147 81-57 75 0H25l-1-190h47c2 12-1 28 3 38 10-53 101-56 108 0 13-22 24-43 59-42 82 1 51 116 57 194h-49v-107c-1-25-5-48-29-50" id="bw"/><path d="M195-6C206 82 75 100 31 46c-4-6-6-13-8-21l49-6c3 16 16 24 34 25 40 0 42-37 40-79-11 22-30 35-61 35-53 0-70-43-70-97 0-56 18-96 73-97 30 0 46 14 59 34l2-30h47zm-90-29c32 0 41-27 41-63 0-35-9-62-40-62-32 0-39 29-40 63 0 36 9 62 39 62" id="bx"/><path d="M135-194c52 0 70 43 70 98 0 56-19 99-73 100-30 1-46-15-58-35L72 0H24l1-261h50v104c11-23 29-37 60-37zM114-30c31 0 40-27 40-66 0-37-7-63-39-63s-41 28-41 65c0 36 8 64 40 64" id="by"/><g id="s"><use transform="matrix(0.05,0,0,0.05,0,0)" xlink:href="#bw"/><use transform="matrix(0.05,0,0,0.05,16,0)" xlink:href="#aM"/><use transform="matrix(0.05,0,0,0.05,26.950000000000003,0)" xlink:href="#aJ"/><use transform="matrix(0.05,0,0,0.05,37.900000000000006,0)" xlink:href="#bx"/><use transform="matrix(0.05,0,0,0.05,48.85000000000001,0)" xlink:href="#aM"/><use transform="matrix(0.05,0,0,0.05,59.80000000000001,0)" xlink:href="#aK"/><use transform="matrix(0.05,0,0,0.05,70.75000000000001,0)" xlink:href="#by"/></g><path d="M63-143c77-2 155-4 155 70C218 13 117 1 30 0v-248h162v28H63v77zm0 116c54-1 121 11 121-45 0-53-67-44-121-44v89" id="bz"/><g id="t"><use transform="matrix(0.05,0,0,0.05,0,0)" xlink:href="#bz"/><use transform="matrix(0.05,0,0,0.05,11.8,0)" xlink:href="#bh"/><use transform="matrix(0.05,0,0,0.05,21.6,0)" xlink:href="#bj"/><use transform="matrix(0.05,0,0,0.05,29.85,0)" xlink:href="#bh"/></g><path d="M141 0L90-78 38 0H4l68-98-65-92h35l48 74 47-74h35l-64 92 68 98h-35" id="bA"/><g id="u"><use transform="matrix(0.05,0,0,0.05,0,0)" xlink:href="#ba"/><use transform="matrix(0.05,0,0,0.05,10.5,0)" xlink:href="#bh"/><use transform="matrix(0.05,0,0,0.05,20.5,0)" xlink:href="#bm"/><use transform="matrix(0.05,0,0,0.05,30.399999999999995,0)" xlink:href="#bm"/><use transform="matrix(0.05,0,0,0.05,40.3,0)" xlink:href="#bl"/><use transform="matrix(0.05,0,0,0.05,53.19999999999999,0)" xlink:href="#bA"/></g><path d="M195 0l-74-108L45 0H8l94-129-87-119h37l69 98 67-98h37l-84 118L233 0h-38" id="bB"/><g id="v"><use transform="matrix(0.05,0,0,0.05,0,0)" xlink:href="#bd"/><use transform="matrix(0.05,0,0,0.05,5.95,0)" xlink:href="#bB"/><use transform="matrix(0.05,0,0,0.05,17.95,0)" xlink:href="#aW"/><use transform="matrix(0.05,0,0,0.05,27.950000000000003,0)" xlink:href="#bh"/><use transform="matrix(0.05,0,0,0.05,37.95,0)" xlink:href="#bm"/><use transform="matrix(0.05,0,0,0.05,47.85,0)" xlink:href="#bn"/><use transform="matrix(0.05,0,0,0.05,57.900000000000006,0)" xlink:href="#bi"/></g><path d="M75-87c-4 1-14 3-19 3V0H24v-190h32v83c26-2 31-21 43-41l26-42h33l-61 86L159 0h-35" id="bC"/><g id="w"><use transform="matrix(0.05,0,0,0.05,0,0)" xlink:href="#aU"/><use transform="matrix(0.05,0,0,0.05,9,0)" xlink:href="#bk"/><use transform="matrix(0.05,0,0,0.05,18.700000000000003,0)" xlink:href="#bn"/><use transform="matrix(0.05,0,0,0.05,28.75,0)" xlink:href="#aU"/><use transform="matrix(0.05,0,0,0.05,37.95,0)" xlink:href="#aY"/><use transform="matrix(0.05,0,0,0.05,47.95,0)" xlink:href="#bC"/></g><g id="x"><use transform="matrix(0.05,0,0,0.05,0,0)" xlink:href="#bi"/><use transform="matrix(0.05,0,0,0.05,8.000000000000002,0)" xlink:href="#aY"/><use transform="matrix(0.05,0,0,0.05,18,0)" xlink:href="#aX"/><use transform="matrix(0.05,0,0,0.05,27.35,0)" xlink:href="#bh"/><use transform="matrix(0.05,0,0,0.05,37.35,0)" xlink:href="#aW"/><use transform="matrix(0.05,0,0,0.05,47.35,0)" xlink:href="#aY"/><use transform="matrix(0.05,0,0,0.05,57.35,0)" xlink:href="#aX"/></g><g id="y"><use transform="matrix(0.05,0,0,0.05,0,0)" xlink:href="#bC"/><use transform="matrix(0.05,0,0,0.05,8.05,0)" xlink:href="#bg"/><use transform="matrix(0.05,0,0,0.05,16.85,0)" xlink:href="#aW"/><use transform="matrix(0.05,0,0,0.05,26.85,0)" xlink:href="#aU"/><use transform="matrix(0.05,0,0,0.05,35.85,0)" xlink:href="#bl"/></g><path d="M175-194c59 1 80 36 80 99 0 62-25 99-81 99-54 0-76-36-78-91H57V0H25v-190h32v80h39c4-56 30-84 79-84zm-1 174c42 1 48-34 48-75 0-42-6-75-46-75-41-1-47 34-47 75s6 74 45 75" id="bD"/><g id="z"><use transform="matrix(0.05,0,0,0.05,0,0)" xlink:href="#aX"/><use transform="matrix(0.05,0,0,0.05,9.350000000000001,0)" xlink:href="#bh"/><use transform="matrix(0.05,0,0,0.05,19.35,0)" xlink:href="#bf"/><use transform="matrix(0.05,0,0,0.05,29.85,0)" xlink:href="#bD"/><use transform="matrix(0.05,0,0,0.05,42.95,0)" xlink:href="#bi"/></g><path d="M24-248c93 1 206-16 204 79-1 75-69 88-152 82V0H24v-248zm52 121c47 0 100 7 100-41 0-47-54-39-100-39v80" id="bE"/><path d="M24 0v-248h52V0H24" id="bF"/><g id="A"><use transform="matrix(0.05,0,0,0.05,0,0)" xlink:href="#aQ"/><use transform="matrix(0.05,0,0,0.05,12.950000000000001,0)" xlink:href="#bE"/><use transform="matrix(0.05,0,0,0.05,24.950000000000003,0)" xlink:href="#bF"/></g><path d="M105-20c41 1 53-27 53-68 0-40-9-69-50-69s-54 27-54 69c0 40 12 68 51 68zM47-134c10-28 31-47 68-47 56 0 76 33 76 92 1 60-28 90-86 93C-9 9 1-201 72-238c29-15 73-21 110-26v28c-67 12-144 10-135 102" id="bG"/><path d="M156-87c-4 1-15 3-20 3V0h-31v-84c-5 0-16-2-20-3L36 0H1l62-104c-22-24-40-59-60-86h33l50 76c5 5 9 7 19 7v-83h31v83c27-1 31-21 43-41l26-42h33l-60 86L240 0h-36" id="bH"/><g id="B"><use transform="matrix(0.05,0,0,0.05,0,0)" xlink:href="#bG"/><use transform="matrix(0.05,0,0,0.05,10.3,0)" xlink:href="#bn"/><use transform="matrix(0.05,0,0,0.05,20.35,0)" xlink:href="#aW"/><use transform="matrix(0.05,0,0,0.05,30.35,0)" xlink:href="#bH"/><use transform="matrix(0.05,0,0,0.05,42.35,0)" xlink:href="#bh"/></g><path d="M230 0l2-204L168 0h-37L68-204 70 0H24v-248h70l56 185 57-185h69V0h-46" id="bI"/><path d="M71-190L68-54l78-136h50V0h-45l3-136L78 0H25v-190h46" id="bJ"/><path d="M25-190h50v81c22-2 24-18 33-36l22-45h49c-19 30-32 64-55 90L180 0h-50L89-81c-3 2-9 2-14 2V0H25v-190" id="bK"/><path d="M135-194c53 0 70 44 70 98 0 56-19 98-73 100-31 1-45-17-59-34 3 33 2 69 2 105H25l-1-265h48c2 10 0 23 3 31 11-24 29-35 60-35zM114-30c33 0 39-31 40-66 0-38-9-64-40-64-56 0-55 130 0 130" id="bL"/><path d="M110-194c64 0 96 36 96 99 0 64-35 99-97 99-61 0-95-36-95-99 0-62 34-99 96-99zm-1 164c35 0 45-28 45-65 0-40-10-65-43-65-34 0-45 26-45 65 0 36 10 65 43 65" id="bM"/><path d="M190-63c-7 42-38 67-86 67-59 0-84-38-90-98-12-110 154-137 174-36l-49 2c-2-19-15-32-35-32-30 0-35 28-38 64-6 74 65 87 74 30" id="bN"/><path d="M185-48c-13 30-37 53-82 52C43 2 14-33 14-96s30-98 90-98c62 0 83 45 84 108H66c0 31 8 55 39 56 18 0 30-7 34-22zm-45-69c5-46-57-63-70-21-2 6-4 13-4 21h74" id="bO"/><path d="M207-55C206 19 99-3 25 0v-190c69 5 172-21 177 47 2 30-24 34-43 44 27 3 48 13 48 44zm-50-2c0-36-48-24-82-26v52c34-2 82 10 82-26zm-7-80c0-31-45-20-75-22v45c31-3 75 10 75-23" id="bP"/><g id="C"><use transform="matrix(0.05,0,0,0.05,0,0)" xlink:href="#bI"/><use transform="matrix(0.05,0,0,0.05,14.950000000000001,0)" xlink:href="#bJ"/><use transform="matrix(0.05,0,0,0.05,26,0)" xlink:href="#bK"/><use transform="matrix(0.05,0,0,0.05,35,0)" xlink:href="#bL"/><use transform="matrix(0.05,0,0,0.05,45.95,0)" xlink:href="#bM"/><use transform="matrix(0.05,0,0,0.05,56.650000000000006,0)" xlink:href="#bN"/><use transform="matrix(0.05,0,0,0.05,66.65,0)" xlink:href="#bO"/><use transform="matrix(0.05,0,0,0.05,76.65,0)" xlink:href="#bL"/><use transform="matrix(0.05,0,0,0.05,87.60000000000001,0)" xlink:href="#bP"/><use transform="matrix(0.05,0,0,0.05,98.65,0)" xlink:href="#bJ"/><use transform="matrix(0.05,0,0,0.05,109.7,0)" xlink:href="#bN"/></g><g id="D"><use transform="matrix(0.05,0,0,0.05,0,0)" xlink:href="#be"/><use transform="matrix(0.05,0,0,0.05,12.9,0)" xlink:href="#aV"/><use transform="matrix(0.05,0,0,0.05,22.9,0)" xlink:href="#aW"/><use transform="matrix(0.05,0,0,0.05,32.9,0)" xlink:href="#bn"/><use transform="matrix(0.05,0,0,0.05,42.95,0)" xlink:href="#aY"/><use transform="matrix(0.05,0,0,0.05,52.550000000000004,0)" xlink:href="#ba"/><use transform="matrix(0.05,0,0,0.05,63.050000000000004,0)" xlink:href="#bn"/><use transform="matrix(0.05,0,0,0.05,73.10000000000001,0)" xlink:href="#aZ"/><use transform="matrix(0.05,0,0,0.05,82.45,0)" xlink:href="#aV"/><use transform="matrix(0.05,0,0,0.05,92.45,0)" xlink:href="#aU"/><use transform="matrix(0.05,0,0,0.05,101.45,0)" xlink:href="#bC"/><use transform="matrix(0.05,0,0,0.05,109.30000000000001,0)" xlink:href="#bn"/></g><g id="E"><use transform="matrix(0.05,0,0,0.05,0,0)" xlink:href="#aY"/><use transform="matrix(0.05,0,0,0.05,10,0)" xlink:href="#bG"/><use transform="matrix(0.05,0,0,0.05,20.3,0)" xlink:href="#bm"/><use transform="matrix(0.05,0,0,0.05,30.200000000000003,0)" xlink:href="#aY"/><use transform="matrix(0.05,0,0,0.05,40.2,0)" xlink:href="#aX"/><use transform="matrix(0.05,0,0,0.05,49.35000000000001,0)" xlink:href="#bf"/><use transform="matrix(0.05,0,0,0.05,59.85,0)" xlink:href="#bs"/><use transform="matrix(0.05,0,0,0.05,69.55000000000001,0)" xlink:href="#aV"/><use transform="matrix(0.05,0,0,0.05,78.95000000000002,0)" xlink:href="#bi"/></g><g id="F"><use transform="matrix(0.05,0,0,0.05,0,0)" xlink:href="#aX"/><use transform="matrix(0.05,0,0,0.05,9.350000000000001,0)" xlink:href="#bh"/><use transform="matrix(0.05,0,0,0.05,19.35,0)" xlink:href="#bf"/><use transform="matrix(0.05,0,0,0.05,29.85,0)" xlink:href="#bD"/><use transform="matrix(0.05,0,0,0.05,42.95,0)" xlink:href="#bi"/></g><use transform="matrix(0.05,0,0,0.05,0,0)" xlink:href="#aX" id="G"/><path d="M206-28h31V72h-32V0H34v72H3V-28h25c38-50 38-143 51-220h127v220zm-32 0v-192h-66C95-156 94-78 66-28h108" id="bQ"/><g id="H"><use transform="matrix(0.05,0,0,0.05,0,0)" xlink:href="#bz"/><use transform="matrix(0.05,0,0,0.05,11.8,0)" xlink:href="#bQ"/><use transform="matrix(0.05,0,0,0.05,23.950000000000003,0)" xlink:href="#bc"/></g><g id="I"><use transform="matrix(0.05,0,0,0.05,0,0)" xlink:href="#bp"/><use transform="matrix(0.05,0,0,0.05,12.350000000000001,0)" xlink:href="#bh"/><use transform="matrix(0.05,0,0,0.05,22.35,0)" xlink:href="#bt"/><use transform="matrix(0.05,0,0,0.05,28.5,0)" xlink:href="#bh"/><use transform="matrix(0.05,0,0,0.05,38.300000000000004,0)" xlink:href="#bj"/><use transform="matrix(0.05,0,0,0.05,46.550000000000004,0)" xlink:href="#bn"/><use transform="matrix(0.05,0,0,0.05,56.6,0)" xlink:href="#bm"/></g><g id="J"><use transform="matrix(0.05,0,0,0.05,0,0)" xlink:href="#bi"/><use transform="matrix(0.05,0,0,0.05,8.000000000000002,0)" xlink:href="#aY"/><use transform="matrix(0.05,0,0,0.05,18,0)" xlink:href="#aX"/><use transform="matrix(0.05,0,0,0.05,27.35,0)" xlink:href="#bh"/><use transform="matrix(0.05,0,0,0.05,37.35,0)" xlink:href="#aW"/><use transform="matrix(0.05,0,0,0.05,47.35,0)" xlink:href="#aY"/><use transform="matrix(0.05,0,0,0.05,57.35,0)" xlink:href="#aX"/></g><path d="M185-48c-13 30-37 53-82 52C43 2 14-33 14-96s30-98 90-98c62 0 83 45 84 108H66c0 31 8 55 39 56 18 0 30-7 34-22zm-45-69c5-46-57-63-70-21-2 6-4 13-4 21h74" id="bR"/><g id="K"><use transform="matrix(0.05,0,0,0.05,0,0)" xlink:href="#aQ"/><use transform="matrix(0.05,0,0,0.05,12.950000000000001,0)" xlink:href="#bx"/><use transform="matrix(0.05,0,0,0.05,23.900000000000002,0)" xlink:href="#bR"/><use transform="matrix(0.05,0,0,0.05,33.900000000000006,0)" xlink:href="#aJ"/><use transform="matrix(0.05,0,0,0.05,44.85000000000001,0)" xlink:href="#aO"/></g><g id="L"><use transform="matrix(0.05,0,0,0.05,0,0)" xlink:href="#bj"/><use transform="matrix(0.05,0,0,0.05,8.25,0)" xlink:href="#bh"/><use transform="matrix(0.05,0,0,0.05,18.25,0)" xlink:href="#ba"/><use transform="matrix(0.05,0,0,0.05,28.75,0)" xlink:href="#bh"/><use transform="matrix(0.05,0,0,0.05,38.35,0)" xlink:href="#aZ"/><use transform="matrix(0.05,0,0,0.05,47.7,0)" xlink:href="#bn"/></g><g id="M"><use transform="matrix(0.05,0,0,0.05,0,0)" xlink:href="#aY"/><use transform="matrix(0.05,0,0,0.05,9.6,0)" xlink:href="#bi"/></g><g id="N"><use transform="matrix(0.05,0,0,0.05,0,0)" xlink:href="#bp"/><use transform="matrix(0.05,0,0,0.05,12.350000000000001,0)" xlink:href="#bh"/><use transform="matrix(0.05,0,0,0.05,22.35,0)" xlink:href="#aU"/><use transform="matrix(0.05,0,0,0.05,31.35,0)" xlink:href="#bi"/><use transform="matrix(0.05,0,0,0.05,39.35,0)" xlink:href="#aV"/><use transform="matrix(0.05,0,0,0.05,49.35,0)" xlink:href="#aW"/><use transform="matrix(0.05,0,0,0.05,59.35,0)" xlink:href="#bd"/><use transform="matrix(0.05,0,0,0.05,65.3,0)" xlink:href="#bm"/><use transform="matrix(0.05,0,0,0.05,75.2,0)" xlink:href="#aY"/><use transform="matrix(0.05,0,0,0.05,84.8,0)" xlink:href="#ba"/><use transform="matrix(0.05,0,0,0.05,95.3,0)" xlink:href="#bl"/></g><path d="M160-131c35 5 61 23 61 61C221 17 115-2 30 0v-248c76 3 177-17 177 60 0 33-19 50-47 57zm-97-11c50-1 110 9 110-42 0-47-63-36-110-37v79zm0 115c55-2 124 14 124-45 0-56-70-42-124-44v89" id="bS"/><g id="O"><use transform="matrix(0.05,0,0,0.05,0,0)" xlink:href="#bd"/><use transform="matrix(0.05,0,0,0.05,5.95,0)" xlink:href="#bS"/><use transform="matrix(0.05,0,0,0.05,17.95,0)" xlink:href="#bl"/><use transform="matrix(0.05,0,0,0.05,30.85,0)" xlink:href="#bk"/><use transform="matrix(0.05,0,0,0.05,40.550000000000004,0)" xlink:href="#aY"/><use transform="matrix(0.05,0,0,0.05,50.150000000000006,0)" xlink:href="#bf"/><use transform="matrix(0.05,0,0,0.05,60.650000000000006,0)" xlink:href="#bm"/><use transform="matrix(0.05,0,0,0.05,70.55000000000001,0)" xlink:href="#bs"/><use transform="matrix(0.05,0,0,0.05,80.25000000000001,0)" xlink:href="#aV"/><use transform="matrix(0.05,0,0,0.05,89.65000000000002,0)" xlink:href="#bi"/></g><g id="P"><use transform="matrix(0.05,0,0,0.05,0,0)" xlink:href="#bk"/><use transform="matrix(0.05,0,0,0.05,9.700000000000001,0)" xlink:href="#aY"/><use transform="matrix(0.05,0,0,0.05,19.3,0)" xlink:href="#bf"/><use transform="matrix(0.05,0,0,0.05,29.8,0)" xlink:href="#bg"/><use transform="matrix(0.05,0,0,0.05,38.8,0)" xlink:href="#aZ"/><use transform="matrix(0.05,0,0,0.05,48.15,0)" xlink:href="#aV"/><use transform="matrix(0.05,0,0,0.05,58.150000000000006,0)" xlink:href="#bm"/><use transform="matrix(0.05,0,0,0.05,68.05,0)" xlink:href="#bn"/><use transform="matrix(0.05,0,0,0.05,78.1,0)" xlink:href="#aV"/></g><path d="M25 0v-190h32v167h71v-167h31v167h71v-167h32v167h26v95h-29V0H25" id="bT"/><g id="Q"><use transform="matrix(0.05,0,0,0.05,0,0)" xlink:href="#bd"/><use transform="matrix(0.05,0,0,0.05,5.95,0)" xlink:href="#bS"/><use transform="matrix(0.05,0,0,0.05,17.95,0)" xlink:href="#aY"/><use transform="matrix(0.05,0,0,0.05,27.75,0)" xlink:href="#bj"/><use transform="matrix(0.05,0,0,0.05,36,0)" xlink:href="#aX"/><use transform="matrix(0.05,0,0,0.05,45.55,0)" xlink:href="#aW"/><use transform="matrix(0.05,0,0,0.05,55.54999999999999,0)" xlink:href="#bh"/><use transform="matrix(0.05,0,0,0.05,65.55,0)" xlink:href="#bT"/><use transform="matrix(0.05,0,0,0.05,80.35,0)" xlink:href="#bh"/><use transform="matrix(0.05,0,0,0.05,90.35,0)" xlink:href="#aV"/><use transform="matrix(0.05,0,0,0.05,99.75,0)" xlink:href="#bi"/></g><path d="M27 0v-27h64v-190l-56 39v-29l58-41h29v221h61V0H27" id="bU"/><use transform="matrix(0.05,0,0,0.05,0,0)" xlink:href="#bU" id="R"/><path d="M18-150v-26h174v26H18zm0 90v-26h174v26H18" id="bV"/><g id="S"><use transform="matrix(0.05,0,0,0.05,0,0)" xlink:href="#bh"/><use transform="matrix(0.05,0,0,0.05,10,0)" xlink:href="#bt"/><use transform="matrix(0.05,0,0,0.05,16.15,0)" xlink:href="#aV"/><use transform="matrix(0.05,0,0,0.05,26.149999999999995,0)" xlink:href="#bm"/><use transform="matrix(0.05,0,0,0.05,36.05,0)" xlink:href="#bi"/><use transform="matrix(0.05,0,0,0.05,44.25,0)" xlink:href="#bV"/><use transform="matrix(0.05,0,0,0.05,54.75,0)" xlink:href="#bU"/></g><g id="T"><use transform="matrix(0.05,0,0,0.05,0,0)" xlink:href="#aX"/><use transform="matrix(0.05,0,0,0.05,9.55,0)" xlink:href="#bl"/><use transform="matrix(0.05,0,0,0.05,22.450000000000003,0)" xlink:href="#aZ"/><use transform="matrix(0.05,0,0,0.05,31.8,0)" xlink:href="#bn"/><use transform="matrix(0.05,0,0,0.05,41.85000000000001,0)" xlink:href="#aU"/><use transform="matrix(0.05,0,0,0.05,50.85000000000001,0)" xlink:href="#bf"/><use transform="matrix(0.05,0,0,0.05,61.35,0)" xlink:href="#bs"/><use transform="matrix(0.05,0,0,0.05,71.05000000000001,0)" xlink:href="#bD"/><use transform="matrix(0.05,0,0,0.05,84.55000000000001,0)" xlink:href="#bT"/><use transform="matrix(0.05,0,0,0.05,99.35000000000001,0)" xlink:href="#bn"/><use transform="matrix(0.05,0,0,0.05,109.4,0)" xlink:href="#bb"/></g><g id="U"><use transform="matrix(0.05,0,0,0.05,0,0)" xlink:href="#bg"/><use transform="matrix(0.05,0,0,0.05,9,0)" xlink:href="#bj"/><use transform="matrix(0.05,0,0,0.05,17.05,0)" xlink:href="#aV"/><use transform="matrix(0.05,0,0,0.05,26.450000000000003,0)" xlink:href="#bf"/></g><g id="V"><use transform="matrix(0.05,0,0,0.05,0,0)" xlink:href="#ba"/><use transform="matrix(0.05,0,0,0.05,10.5,0)" xlink:href="#aY"/><use transform="matrix(0.05,0,0,0.05,20.5,0)" xlink:href="#bG"/><use transform="matrix(0.05,0,0,0.05,30.400000000000002,0)" xlink:href="#bh"/><use transform="matrix(0.05,0,0,0.05,40.400000000000006,0)" xlink:href="#aX"/><use transform="matrix(0.05,0,0,0.05,49.55000000000001,0)" xlink:href="#bf"/><use transform="matrix(0.05,0,0,0.05,60.05000000000001,0)" xlink:href="#aV"/><use transform="matrix(0.05,0,0,0.05,70.05000000000001,0)" xlink:href="#bm"/><use transform="matrix(0.05,0,0,0.05,79.95000000000002,0)" xlink:href="#bn"/><use transform="matrix(0.05,0,0,0.05,90.00000000000001,0)" xlink:href="#aV"/></g><g id="W"><use transform="matrix(0.05,0,0,0.05,0,0)" xlink:href="#bh"/><use transform="matrix(0.05,0,0,0.05,10,0)" xlink:href="#bt"/><use transform="matrix(0.05,0,0,0.05,16.15,0)" xlink:href="#aV"/><use transform="matrix(0.05,0,0,0.05,26.149999999999995,0)" xlink:href="#bm"/><use transform="matrix(0.05,0,0,0.05,36.05,0)" xlink:href="#bi"/><use transform="matrix(0.05,0,0,0.05,44.05,0)" xlink:href="#aY"/><use transform="matrix(0.05,0,0,0.05,54.04999999999999,0)" xlink:href="#aX"/></g><g id="X"><use transform="matrix(0.05,0,0,0.05,0,0)" xlink:href="#bm"/><use transform="matrix(0.05,0,0,0.05,9.9,0)" xlink:href="#bh"/></g><g id="Y"><use transform="matrix(0.05,0,0,0.05,0,0)" xlink:href="#aW"/><use transform="matrix(0.05,0,0,0.05,10,0)" xlink:href="#bh"/><use transform="matrix(0.05,0,0,0.05,19.8,0)" xlink:href="#bj"/><use transform="matrix(0.05,0,0,0.05,28.05,0)" xlink:href="#bm"/><use transform="matrix(0.05,0,0,0.05,37.95,0)" xlink:href="#bl"/><use transform="matrix(0.05,0,0,0.05,50.85,0)" xlink:href="#aV"/></g><g id="Z"><use transform="matrix(0.05,0,0,0.05,0,0)" xlink:href="#bg"/><use transform="matrix(0.05,0,0,0.05,9,0)" xlink:href="#bj"/><use transform="matrix(0.05,0,0,0.05,17.05,0)" xlink:href="#bf"/><use transform="matrix(0.05,0,0,0.05,27.55,0)" xlink:href="#bl"/></g><path d="M173-56C173 11 92 0 25 0v-190h32v80c58-2 117-2 116 54zm-34 0c0-39-44-31-82-32v66c39 0 82 6 82-34" id="bW"/><g id="aa"><use transform="matrix(0.05,0,0,0.05,0,0)" xlink:href="#aV"/><use transform="matrix(0.05,0,0,0.05,10,0)" xlink:href="#aU"/><use transform="matrix(0.05,0,0,0.05,19,0)" xlink:href="#bi"/><use transform="matrix(0.05,0,0,0.05,27.200000000000003,0)" xlink:href="#bW"/></g><g id="ab"><use transform="matrix(0.05,0,0,0.05,0,0)" xlink:href="#bt"/><use transform="matrix(0.05,0,0,0.05,6.15,0)" xlink:href="#aY"/><use transform="matrix(0.05,0,0,0.05,16.15,0)" xlink:href="#aW"/><use transform="matrix(0.05,0,0,0.05,26.149999999999995,0)" xlink:href="#bn"/><use transform="matrix(0.05,0,0,0.05,36.2,0)" xlink:href="#bj"/><use transform="matrix(0.05,0,0,0.05,44.25,0)" xlink:href="#aY"/><use transform="matrix(0.05,0,0,0.05,54.25,0)" xlink:href="#bm"/><use transform="matrix(0.05,0,0,0.05,64.15,0)" xlink:href="#bi"/><use transform="matrix(0.05,0,0,0.05,72.15,0)" xlink:href="#bh"/><use transform="matrix(0.05,0,0,0.05,82.15,0)" xlink:href="#bf"/><use transform="matrix(0.05,0,0,0.05,92.65,0)" xlink:href="#bW"/><use transform="matrix(0.05,0,0,0.05,102,0)" xlink:href="#bm"/><use transform="matrix(0.05,0,0,0.05,111.9,0)" xlink:href="#aY"/><use transform="matrix(0.05,0,0,0.05,121.9,0)" xlink:href="#aV"/></g><path d="M25 0v-190h32v167h72v-167h31v167h72v-167h32V0H25" id="bX"/><g id="ac"><use transform="matrix(0.05,0,0,0.05,0,0)" xlink:href="#bp"/><use transform="matrix(0.05,0,0,0.05,12.350000000000001,0)" xlink:href="#bh"/><use transform="matrix(0.05,0,0,0.05,22.35,0)" xlink:href="#aU"/><use transform="matrix(0.05,0,0,0.05,31.35,0)" xlink:href="#bX"/><use transform="matrix(0.05,0,0,0.05,45.75,0)" xlink:href="#bi"/><use transform="matrix(0.05,0,0,0.05,53.75,0)" xlink:href="#bh"/><use transform="matrix(0.05,0,0,0.05,63.75,0)" xlink:href="#bG"/><use transform="matrix(0.05,0,0,0.05,74.05,0)" xlink:href="#bn"/><use transform="matrix(0.05,0,0,0.05,84.1,0)" xlink:href="#aW"/><use transform="matrix(0.05,0,0,0.05,94.1,0)" xlink:href="#aY"/><use transform="matrix(0.05,0,0,0.05,104.09999999999998,0)" xlink:href="#aX"/><use transform="matrix(0.05,0,0,0.05,113.44999999999999,0)" xlink:href="#bh"/><use transform="matrix(0.05,0,0,0.05,123.44999999999999,0)" xlink:href="#bm"/><use transform="matrix(0.05,0,0,0.05,133.35,0)" xlink:href="#bn"/><use transform="matrix(0.05,0,0,0.05,143.4,0)" xlink:href="#aV"/></g><g id="ad"><use transform="matrix(0.05,0,0,0.05,0,0)" xlink:href="#aQ"/><use transform="matrix(0.05,0,0,0.05,12.950000000000001,0)" xlink:href="#bx"/><use transform="matrix(0.05,0,0,0.05,23.900000000000002,0)" xlink:href="#bR"/><use transform="matrix(0.05,0,0,0.05,33.900000000000006,0)" xlink:href="#aJ"/><use transform="matrix(0.05,0,0,0.05,44.85000000000001,0)" xlink:href="#aO"/></g><path d="M25 0v-190h46v157h56v-157h46v157h56v-157h46v157h25V72h-43V0H25" id="bY"/><path d="M185-48c-13 30-37 53-82 52C43 2 14-33 14-96s30-98 90-98c62 0 83 45 84 108H66c0 31 8 55 39 56 18 0 30-7 34-22zm-45-69c5-46-57-63-70-21-2 6-4 13-4 21h74zm-18-94v-38h38v38h-38zm-76 0v-38h37v38H46" id="bZ"/><g id="ag"><use transform="matrix(0.05,0,0,0.05,0,0)" xlink:href="#bO"/><use transform="matrix(0.05,0,0,0.05,10,0)" xlink:href="#bY"/><use transform="matrix(0.05,0,0,0.05,25.15,0)" xlink:href="#bZ"/></g><path d="M133-34C117-15 103 5 69 4 32 3 11-16 11-54c-1-60 55-63 116-61 1-26-3-47-28-47-18 1-26 9-28 27l-52-2c7-38 36-58 82-57s74 22 75 68l1 82c-1 14 12 18 25 15v27c-30 8-71 5-69-32zm-48 3c29 0 43-24 42-57-32 0-66-3-65 30 0 17 8 27 23 27" id="ca"/><path d="M140-190v33H75V0H25v-190h115" id="cb"/><path d="M75-190v75h68v-75h49V0h-49v-81H75V0H25v-190h50" id="cc"/><path d="M10-190h156v33h-53V0H63v-157H10v-33" id="cd"/><path d="M206-58C204 19 101-3 25 0v-190h50v76c63-1 132-4 131 56zm-50 0c0-33-48-23-81-25v52c34-2 81 8 81-27zm77 58v-190h49V0h-49" id="ce"/><g id="ah"><use transform="matrix(0.05,0,0,0.05,0,0)" xlink:href="#ca"/><use transform="matrix(0.05,0,0,0.05,10,0)" xlink:href="#cb"/><use transform="matrix(0.05,0,0,0.05,17.45,0)" xlink:href="#bO"/><use transform="matrix(0.05,0,0,0.05,27.450000000000003,0)" xlink:href="#cc"/><use transform="matrix(0.05,0,0,0.05,38.3,0)" xlink:href="#cd"/><use transform="matrix(0.05,0,0,0.05,47.099999999999994,0)" xlink:href="#ce"/></g><path d="M24 0v-54h51V0H24" id="cf"/><g id="ai"><use transform="matrix(0.05,0,0,0.05,0,0)" xlink:href="#cf"/><use transform="matrix(0.05,0,0,0.05,5,0)" xlink:href="#cf"/><use transform="matrix(0.05,0,0,0.05,10,0)" xlink:href="#cf"/></g><path d="M135-150c-39-12-60 13-60 57V0H25l-1-190h47c2 13-1 29 3 40 6-28 27-53 61-41v41" id="cg"/><path d="M137-138c1-29-70-34-71-4 15 46 118 7 119 86 1 83-164 76-172 9l43-7c4 19 20 25 44 25 33 8 57-30 24-41C81-84 22-81 20-136c-2-80 154-74 161-7" id="ch"/><g id="aj"><use transform="matrix(0.05,0,0,0.05,0,0)" xlink:href="#cg"/><use transform="matrix(0.05,0,0,0.05,7,0)" xlink:href="#bR"/><use transform="matrix(0.05,0,0,0.05,17,0)" xlink:href="#aK"/><use transform="matrix(0.05,0,0,0.05,27.950000000000003,0)" xlink:href="#aN"/><use transform="matrix(0.05,0,0,0.05,32.95,0)" xlink:href="#ch"/></g><g id="ak"><use transform="matrix(0.05,0,0,0.05,0,0)" xlink:href="#bB"/><use transform="matrix(0.05,0,0,0.05,12,0)" xlink:href="#aW"/><use transform="matrix(0.05,0,0,0.05,22,0)" xlink:href="#bh"/><use transform="matrix(0.05,0,0,0.05,32,0)" xlink:href="#bm"/><use transform="matrix(0.05,0,0,0.05,41.9,0)" xlink:href="#bn"/><use transform="matrix(0.05,0,0,0.05,51.95,0)" xlink:href="#bi"/></g><g id="al"><use transform="matrix(0.05,0,0,0.05,0,0)" xlink:href="#bn"/><use transform="matrix(0.05,0,0,0.05,10.05,0)" xlink:href="#bm"/><use transform="matrix(0.05,0,0,0.05,19.950000000000003,0)" xlink:href="#bo"/><use transform="matrix(0.05,0,0,0.05,34.75,0)" xlink:href="#aY"/><use transform="matrix(0.05,0,0,0.05,44.75,0)" xlink:href="#aW"/><use transform="matrix(0.05,0,0,0.05,54.75,0)" xlink:href="#bp"/><use transform="matrix(0.05,0,0,0.05,67.1,0)" xlink:href="#bh"/><use transform="matrix(0.05,0,0,0.05,77.1,0)" xlink:href="#bq"/><use transform="matrix(0.05,0,0,0.05,87.39999999999999,0)" xlink:href="#bn"/><use transform="matrix(0.05,0,0,0.05,97.44999999999999,0)" xlink:href="#bD"/></g><use transform="matrix(0.05,0,0,0.05,0,0)" xlink:href="#aY" id="am"/><g id="an"><use transform="matrix(0.05,0,0,0.05,0,0)" xlink:href="#bq"/><use transform="matrix(0.05,0,0,0.05,10.100000000000001,0)" xlink:href="#aV"/><use transform="matrix(0.05,0,0,0.05,20.1,0)" xlink:href="#bm"/><use transform="matrix(0.05,0,0,0.05,30,0)" xlink:href="#aV"/></g><g id="ao"><use transform="matrix(0.05,0,0,0.05,0,0)" xlink:href="#bi"/><use transform="matrix(0.05,0,0,0.05,8.000000000000002,0)" xlink:href="#aY"/><use transform="matrix(0.05,0,0,0.05,18,0)" xlink:href="#aX"/><use transform="matrix(0.05,0,0,0.05,27.35,0)" xlink:href="#bh"/><use transform="matrix(0.05,0,0,0.05,37.35,0)" xlink:href="#aW"/><use transform="matrix(0.05,0,0,0.05,47.35,0)" xlink:href="#bh"/></g><path d="M197 0v-115H63V0H30v-248h33v105h134v-105h34V0h-34" id="ci"/><g id="ap"><use transform="matrix(0.05,0,0,0.05,0,0)" xlink:href="#ci"/><use transform="matrix(0.05,0,0,0.05,12.950000000000001,0)" xlink:href="#aV"/><use transform="matrix(0.05,0,0,0.05,22.950000000000003,0)" xlink:href="#bC"/><use transform="matrix(0.05,0,0,0.05,31,0)" xlink:href="#aY"/><use transform="matrix(0.05,0,0,0.05,40.60000000000001,0)" xlink:href="#bi"/><use transform="matrix(0.05,0,0,0.05,48.60000000000001,0)" xlink:href="#aY"/><use transform="matrix(0.05,0,0,0.05,58.6,0)" xlink:href="#aW"/><use transform="matrix(0.05,0,0,0.05,68.60000000000001,0)" xlink:href="#bl"/><use transform="matrix(0.05,0,0,0.05,81.50000000000001,0)" xlink:href="#bb"/></g><g id="aq"><use transform="matrix(0.05,0,0,0.05,0,0)" xlink:href="#bk"/><use transform="matrix(0.05,0,0,0.05,9.700000000000001,0)" xlink:href="#aW"/><use transform="matrix(0.05,0,0,0.05,19.700000000000003,0)" xlink:href="#aY"/><use transform="matrix(0.05,0,0,0.05,29.700000000000003,0)" xlink:href="#bp"/><use transform="matrix(0.05,0,0,0.05,42.050000000000004,0)" xlink:href="#aV"/><use transform="matrix(0.05,0,0,0.05,51.85,0)" xlink:href="#bH"/><use transform="matrix(0.05,0,0,0.05,64.05000000000001,0)" xlink:href="#bg"/><use transform="matrix(0.05,0,0,0.05,73.05000000000001,0)" xlink:href="#bi"/><use transform="matrix(0.05,0,0,0.05,81.05000000000001,0)" xlink:href="#aY"/><use transform="matrix(0.05,0,0,0.05,91.05000000000001,0)" xlink:href="#bC"/></g><g id="ar"><use transform="matrix(0.05,0,0,0.05,0,0)" xlink:href="#aX"/><use transform="matrix(0.05,0,0,0.05,9.55,0)" xlink:href="#aW"/><use transform="matrix(0.05,0,0,0.05,19.55,0)" xlink:href="#aV"/><use transform="matrix(0.05,0,0,0.05,29.55,0)" xlink:href="#bp"/><use transform="matrix(0.05,0,0,0.05,41.900000000000006,0)" xlink:href="#aV"/><use transform="matrix(0.05,0,0,0.05,51.900000000000006,0)" xlink:href="#bm"/><use transform="matrix(0.05,0,0,0.05,61.800000000000004,0)" xlink:href="#bn"/></g><path d="M76-208v77h127v40H76V0H24v-248h183v40H76" id="cj"/><g id="as"><use transform="matrix(0.05,0,0,0.05,0,0)" xlink:href="#cj"/><use transform="matrix(0.05,0,0,0.05,10.950000000000001,0)" xlink:href="#cg"/><use transform="matrix(0.05,0,0,0.05,17.950000000000003,0)" xlink:href="#aM"/><use transform="matrix(0.05,0,0,0.05,28.900000000000006,0)" xlink:href="#aJ"/><use transform="matrix(0.05,0,0,0.05,39.85000000000001,0)" xlink:href="#aO"/><use transform="matrix(0.05,0,0,0.05,45.80000000000001,0)" xlink:href="#bR"/><use transform="matrix(0.05,0,0,0.05,55.80000000000001,0)" xlink:href="#aJ"/><use transform="matrix(0.05,0,0,0.05,66.75000000000001,0)" xlink:href="#aK"/></g><g id="at"><use transform="matrix(0.05,0,0,0.05,0,0)" xlink:href="#aX"/><use transform="matrix(0.05,0,0,0.05,9.350000000000001,0)" xlink:href="#aV"/><use transform="matrix(0.05,0,0,0.05,19.150000000000002,0)" xlink:href="#bG"/><use transform="matrix(0.05,0,0,0.05,29.450000000000003,0)" xlink:href="#bd"/><use transform="matrix(0.05,0,0,0.05,35.400000000000006,0)" xlink:href="#bp"/><use transform="matrix(0.05,0,0,0.05,47.75000000000001,0)" xlink:href="#aY"/><use transform="matrix(0.05,0,0,0.05,57.75,0)" xlink:href="#aW"/><use transform="matrix(0.05,0,0,0.05,67.35000000000001,0)" xlink:href="#ba"/><use transform="matrix(0.05,0,0,0.05,77.85000000000001,0)" xlink:href="#bh"/></g><g id="au"><use transform="matrix(0.05,0,0,0.05,0,0)" xlink:href="#bd"/><use transform="matrix(0.05,0,0,0.05,5.95,0)" xlink:href="#aX"/><use transform="matrix(0.05,0,0,0.05,15.5,0)" xlink:href="#bl"/><use transform="matrix(0.05,0,0,0.05,28.399999999999995,0)" xlink:href="#aX"/><use transform="matrix(0.05,0,0,0.05,37.75,0)" xlink:href="#aY"/><use transform="matrix(0.05,0,0,0.05,47.35,0)" xlink:href="#ba"/><use transform="matrix(0.05,0,0,0.05,57.85,0)" xlink:href="#bn"/><use transform="matrix(0.05,0,0,0.05,67.9,0)" xlink:href="#bi"/></g><g id="av"><use transform="matrix(0.05,0,0,0.05,0,0)" xlink:href="#aU"/><use transform="matrix(0.05,0,0,0.05,9,0)" xlink:href="#bk"/><use transform="matrix(0.05,0,0,0.05,18.700000000000003,0)" xlink:href="#bn"/><use transform="matrix(0.05,0,0,0.05,28.75,0)" xlink:href="#aU"/><use transform="matrix(0.05,0,0,0.05,37.95,0)" xlink:href="#aY"/><use transform="matrix(0.05,0,0,0.05,47.95,0)" xlink:href="#bC"/></g><g id="aw"><use transform="matrix(0.05,0,0,0.05,0,0)" xlink:href="#bi"/><use transform="matrix(0.05,0,0,0.05,8.000000000000002,0)" xlink:href="#aY"/><use transform="matrix(0.05,0,0,0.05,18,0)" xlink:href="#aX"/><use transform="matrix(0.05,0,0,0.05,27.35,0)" xlink:href="#bh"/><use transform="matrix(0.05,0,0,0.05,37.35,0)" xlink:href="#aW"/><use transform="matrix(0.05,0,0,0.05,47.35,0)" xlink:href="#aY"/><use transform="matrix(0.05,0,0,0.05,57.35,0)" xlink:href="#aX"/></g><g id="ax"><use transform="matrix(0.05,0,0,0.05,0,0)" xlink:href="#bn"/><use transform="matrix(0.05,0,0,0.05,10.05,0)" xlink:href="#bj"/></g><g id="ay"><use transform="matrix(0.05,0,0,0.05,0,0)" xlink:href="#bz"/><use transform="matrix(0.05,0,0,0.05,11.8,0)" xlink:href="#bQ"/></g><g id="az"><use transform="matrix(0.05,0,0,0.05,0,0)" xlink:href="#bC"/><use transform="matrix(0.05,0,0,0.05,8.05,0)" xlink:href="#aY"/><use transform="matrix(0.05,0,0,0.05,18.05,0)" xlink:href="#bm"/><use transform="matrix(0.05,0,0,0.05,27.950000000000003,0)" xlink:href="#bC"/><use transform="matrix(0.05,0,0,0.05,35.800000000000004,0)" xlink:href="#aW"/><use transform="matrix(0.05,0,0,0.05,45.800000000000004,0)" xlink:href="#aV"/><use transform="matrix(0.05,0,0,0.05,55.2,0)" xlink:href="#bi"/><use transform="matrix(0.05,0,0,0.05,63.400000000000006,0)" xlink:href="#bm"/><use transform="matrix(0.05,0,0,0.05,73.30000000000001,0)" xlink:href="#aY"/><use transform="matrix(0.05,0,0,0.05,83.30000000000001,0)" xlink:href="#bp"/></g><g id="aA"><use transform="matrix(0.05,0,0,0.05,0,0)" xlink:href="#bi"/><use transform="matrix(0.05,0,0,0.05,8.000000000000002,0)" xlink:href="#aY"/><use transform="matrix(0.05,0,0,0.05,18,0)" xlink:href="#aX"/><use transform="matrix(0.05,0,0,0.05,27.35,0)" xlink:href="#bh"/><use transform="matrix(0.05,0,0,0.05,37.35,0)" xlink:href="#aW"/><use transform="matrix(0.05,0,0,0.05,47.35,0)" xlink:href="#aV"/></g><g id="aB"><use transform="matrix(0.05,0,0,0.05,0,0)" xlink:href="#bi"/><use transform="matrix(0.05,0,0,0.05,8.000000000000002,0)" xlink:href="#aY"/><use transform="matrix(0.05,0,0,0.05,18,0)" xlink:href="#aX"/><use transform="matrix(0.05,0,0,0.05,27.35,0)" xlink:href="#bh"/><use transform="matrix(0.05,0,0,0.05,37.35,0)" xlink:href="#aW"/><use transform="matrix(0.05,0,0,0.05,47.35,0)" xlink:href="#aY"/><use transform="matrix(0.05,0,0,0.05,57.35,0)" xlink:href="#aX"/></g><g id="aC"><use transform="matrix(0.05,0,0,0.05,0,0)" xlink:href="#cg"/><use transform="matrix(0.05,0,0,0.05,7,0)" xlink:href="#bR"/><use transform="matrix(0.05,0,0,0.05,17,0)" xlink:href="#aK"/><use transform="matrix(0.05,0,0,0.05,27.950000000000003,0)" xlink:href="#aN"/><use transform="matrix(0.05,0,0,0.05,32.95,0)" xlink:href="#ch"/></g><use transform="matrix(0.07407407407407408,0,0,0.07407407407407408,0,0)" xlink:href="#bU" id="aD"/><path d="M101-251c82-7 93 87 43 132L82-64C71-53 59-42 53-27h129V0H18c2-99 128-94 128-182 0-28-16-43-45-43s-46 15-49 41l-32-3c6-41 34-60 81-64" id="ck"/><use transform="matrix(0.07407407407407408,0,0,0.07407407407407408,0,0)" xlink:href="#ck" id="aE"/><path d="M126-127c33 6 58 20 58 59 0 88-139 92-164 29-3-8-5-16-6-25l32-3c6 27 21 44 54 44 32 0 52-15 52-46 0-38-36-46-79-43v-28c39 1 72-4 72-42 0-27-17-43-46-43-28 0-47 15-49 41l-32-3c6-42 35-63 81-64 48-1 79 21 79 65 0 36-21 52-52 59" id="cl"/><use transform="matrix(0.07407407407407408,0,0,0.07407407407407408,0,0)" xlink:href="#cl" id="aF"/><path d="M155-56V0h-30v-56H8v-25l114-167h33v167h35v25h-35zm-30-156c-27 46-58 90-88 131h88v-131" id="cm"/><use transform="matrix(0.07407407407407408,0,0,0.07407407407407408,0,0)" xlink:href="#cm" id="aG"/><path d="M54-142c48-35 137-8 131 61C196 18 31 33 14-55l32-4c7 23 22 37 52 37 35-1 51-22 54-58 4-55-73-65-99-34H22l8-134h141v27H59" id="cn"/><use transform="matrix(0.07407407407407408,0,0,0.07407407407407408,0,0)" xlink:href="#cn" id="aH"/></defs></g></svg>